HIERARCHY
ROOT Hips
{
	OFFSET	0.00	0.00	0.00
	CHANNELS 6 Xposition Yposition Zposition Zrotation Xrotation Yrotation
	JOINT LeftUpLeg
	{
		OFFSET	 0.126116	-0.014019	-0.065224
		CHANNELS 3 Zrotation Xrotation Yrotation
		JOINT LeftLeg
		{
			OFFSET	 0.000000	 0.000000	 0.569914
			CHANNELS 3 Zrotation Xrotation Yrotation
			JOINT LeftFoot
			{
				OFFSET	 0.000000	 0.000000	 0.544423
				CHANNELS 3 Zrotation Xrotation Yrotation
				JOINT LeftToeBase
				{
					OFFSET	 0.000000	 0.000000	 0.207117
					CHANNELS 3 Zrotation Xrotation Yrotation
					End Site
					{
						OFFSET	 0.000000	 0.000000	 0.207117
					}
				}
			}
		}
	}
	JOINT RightUpLeg
	{
		OFFSET	-0.124023	-0.008373	-0.065224
		CHANNELS 3 Zrotation Xrotation Yrotation
		JOINT RightLeg
		{
			OFFSET	 0.000000	 0.000000	 0.570047
			CHANNELS 3 Zrotation Xrotation Yrotation
			JOINT RightFoot
			{
				OFFSET	 0.000000	 0.000000	 0.544354
				CHANNELS 3 Zrotation Xrotation Yrotation
				JOINT RightToeBase
				{
					OFFSET	 0.000000	 0.000000	 0.207540
					CHANNELS 3 Zrotation Xrotation Yrotation
					End Site
					{
						OFFSET	 0.000000	 0.000000	 0.207540
					}
				}
			}
		}
	}
	JOINT Spine
	{
		OFFSET	 0.000184	-0.007763	 0.117403
		CHANNELS 3 Zrotation Xrotation Yrotation
		JOINT Spine1
		{
			OFFSET	 0.000000	 0.000000	 0.137269
			CHANNELS 3 Zrotation Xrotation Yrotation
			JOINT Spine2
			{
				OFFSET	 0.000000	 0.000000	 0.156879
				CHANNELS 3 Zrotation Xrotation Yrotation
				JOINT LeftShoulder
				{
					OFFSET	 0.080501	-0.002496	 0.160144
					CHANNELS 3 Zrotation Xrotation Yrotation
					JOINT LeftArm
					{
						OFFSET	 0.000000	 0.000000	 0.164363
						CHANNELS 3 Zrotation Xrotation Yrotation
						JOINT LeftForeArm
						{
							OFFSET	 0.000000	 0.000000	 0.364576
							CHANNELS 3 Zrotation Xrotation Yrotation
							JOINT LeftHand
							{
								OFFSET	 0.000000	 0.000000	 0.360812
								CHANNELS 3 Zrotation Xrotation Yrotation
								JOINT LeftHandIndex1
								{
									OFFSET	 0.000000	 0.000000	 0.086006
									CHANNELS 3 Zrotation Xrotation Yrotation
									JOINT LeftHandIndex2
									{
										OFFSET	 0.000000	 0.000000	 0.047237
										CHANNELS 3 Zrotation Xrotation Yrotation
										JOINT LeftHandIndex3
										{
											OFFSET	-0.004284	-0.000551	 0.038165
											CHANNELS 3 Zrotation Xrotation Yrotation
											End Site
											{
												OFFSET	-0.004284	-0.000551	 0.038165
											}
										}
									}
								}
							}
						}
					}
				}
				JOINT Neck
				{
					OFFSET	 0.000000	 0.000000	 0.176489
					CHANNELS 3 Zrotation Xrotation Yrotation
					JOINT Head
					{
						OFFSET	 0.000000	-0.001747	 0.077940
						CHANNELS 3 Zrotation Xrotation Yrotation
						End Site
						{
							OFFSET	 0.000000	-0.001747	 0.077940
						}
					}
				}
				JOINT RightShoulder
				{
					OFFSET	-0.080363	 0.000306	 0.159706
					CHANNELS 3 Zrotation Xrotation Yrotation
					JOINT RightArm
					{
						OFFSET	 0.000000	 0.000000	 0.164196
						CHANNELS 3 Zrotation Xrotation Yrotation
						JOINT RightForeArm
						{
							OFFSET	 0.000000	 0.000000	 0.365611
							CHANNELS 3 Zrotation Xrotation Yrotation
							JOINT RightHand
							{
								OFFSET	 0.000000	 0.000000	 0.360648
								CHANNELS 3 Zrotation Xrotation Yrotation
								JOINT RightHandIndex1
								{
									OFFSET	 0.000000	 0.000000	 0.069977
									CHANNELS 3 Zrotation Xrotation Yrotation
									JOINT RightHandIndex2
									{
										OFFSET	 0.000000	 0.000000	 0.052305
										CHANNELS 3 Zrotation Xrotation Yrotation
										JOINT RightHandIndex3
										{
											OFFSET	 0.009002	-0.000782	 0.042196
											CHANNELS 3 Zrotation Xrotation Yrotation
											End Site
											{
												OFFSET	 0.009002	-0.000782	 0.042196
											}
										}
									}
								}
							}
						}
					}
				}
			}
		}
	}
}
MOTION
Frames:    12
Frame Time: 0.03333334
-0.438076	-0.033131	 1.274323	-179.491300	-3.098417	 0.898497	 21.998260	 0.948227	 174.416000	-6.735077	-9.347211	-1.191357	-3.910930	 69.063500	-5.243379	-2.385833	 28.452760	 0.000004	 14.090730	 0.799210	 178.604900	 2.054160	-12.674060	 0.116622	 14.779080	 69.676580	 0.972919	 2.384659	 28.388700	-0.000001	 5.411547	 7.811561	-5.240427	 3.084037	 0.261355	 15.082100	-8.389109	 2.840371	-15.324960	-91.776210	 78.527380	-180.000000	-19.406190	-1.964154	 2.033553	 1.206744	-2.209769	-34.654050	-0.005028	-13.982540	-1.656464	-4.130319	 21.525730	 0.991547	-5.167930	 0.731704	 3.519349	-1.378229	 35.397820	-2.634230	-2.572055	 0.319246	 1.424549	-16.688090	-25.491460	-13.965210	 89.782100	 78.203870	 180.000000	 51.663790	-1.981424	 10.479110	-16.683200	-4.727277	 23.705880	 3.053717	 67.966330	 59.373920	 5.716227	 19.173190	-3.685159	 5.027444	 0.246877	-9.377972	-2.350882	 35.473990	 5.254307
-0.438114	-0.033149	 1.274209	-179.340700	-3.397420	 1.175669	 24.049030	 0.566062	 173.822400	-7.736112	-10.026230	-1.454474	-2.251115	 69.100750	-5.980109	-2.385833	 28.452760	 0.000004	 13.810310	 1.207883	 178.291900	 2.625285	-12.364510	 0.236137	 11.367010	 69.128450	 4.094796	 2.384659	 28.388700	-0.000001	 5.383795	 8.257280	-5.493071	 3.144639	 0.232857	 14.748640	-8.645216	 2.620016	-15.073610	-91.776140	 78.527360	 180.000000	-22.017730	-0.975988	 2.810592	 0.730089	-2.019676	-36.609760	-0.222982	-13.312370	-1.871359	-4.130319	 21.525730	 0.991547	-5.167930	 0.731704	 3.519349	-1.378229	 35.397820	-2.634230	-2.817946	 0.700625	 1.717462	-17.316060	-26.684120	-15.416640	 89.781970	 78.203870	-179.999900	 56.767350	 0.210778	 9.233619	-16.757830	-5.353567	 26.270990	 0.470427	 71.499950	 65.331790	 5.716227	 19.173190	-3.685159	 5.027444	 0.246877	-9.377972	-2.350882	 35.473990	 5.254307
-0.438289	-0.033307	 1.273683	-178.908000	-3.849237	 1.548675	 26.059130	-0.520009	 173.062300	-9.136600	-12.334820	-2.090819	-0.573317	 70.059950	-6.399004	-2.385833	 28.452760	 0.000004	 12.918220	 1.164510	 178.067300	 3.496086	-13.404290	 0.457656	 7.015527	 69.096720	 7.984334	 2.384659	 28.388700	-0.000001	 4.909276	 9.058008	-5.783095	 3.125026	-0.154110	 14.189960	-8.838949	 2.705271	-14.624360	-91.776180	 78.527400	 180.000000	-26.678810	 1.633918	 6.831335	-0.060543	-1.996907	-46.038110	-0.692439	-12.466380	-2.110965	-4.130319	 21.525730	 0.991547	-5.167930	 0.731704	 3.519349	-1.378229	 35.397820	-2.634230	-3.161048	 1.206085	 2.246941	-18.232640	-28.125230	-17.808930	 89.782050	 78.203890	-180.000000	 63.818340	 3.786110	 3.353776	-15.651120	-7.575492	 37.951370	 16.900180	 76.087010	 51.510110	 5.716227	 19.173190	-3.685159	 5.027444	 0.246877	-9.377972	-2.350882	 35.473990	 5.254307
-0.438653	-0.033739	 1.272535	-178.324700	-3.976956	 1.393290	 24.112050	-2.049130	 173.343100	-9.275880	-16.581760	-2.833019	-3.414923	 72.663280	-3.431983	-2.385833	 28.452760	 0.000004	 11.684230	-0.274890	 178.783100	 3.713594	-17.022200	 0.641670	 8.268224	 71.028400	 6.437990	 2.384659	 28.388700	-0.000001	 3.728335	 9.604182	-5.502625	 2.837701	-0.904650	 13.944060	-8.563931	 3.432302	-14.377090	-91.776220	 78.527400	-180.000000	-25.930370	 4.499477	 13.224540	-0.620350	-2.599336	-62.299460	-0.522453	-12.656700	-2.106503	-4.130319	 21.525730	 0.991547	-5.167930	 0.731704	 3.519349	-1.378229	 35.397820	-2.634230	-3.099924	 0.944407	 2.190117	-18.043770	-27.499680	-17.742790	 89.782100	 78.203900	 180.000000	 61.955860	 5.369723	-4.787773	-12.143500	-9.367846	 56.783180	 50.282450	 68.317650	 13.047430	 5.716227	 19.173190	-3.685159	 5.027444	 0.246877	-9.377972	-2.350882	 35.473990	 5.254307
-0.439416	-0.034758	 1.269922	-177.343100	-4.461791	 1.080822	 21.590740	-4.185817	 173.719800	-9.880094	-23.486340	-4.200408	-9.360831	 76.879460	 2.887348	-2.385833	 28.452760	 0.000004	 9.853850	-2.376037	-179.747400	 4.194884	-23.041740	 1.046560	 10.830320	 73.914580	 3.294367	 2.384659	 28.388700	-0.000001	 1.708748	 10.468400	-5.038684	 2.315974	-0.715469	 13.377630	-8.801993	 3.119051	-13.939150	-91.776210	 78.527420	-180.000000	-24.839400	 13.298950	 20.491450	-1.831266	-2.906930	-87.014000	-0.523863	-12.531540	-2.115559	-4.130319	 21.525730	 0.991547	-5.167930	 0.731704	 3.519349	-1.378229	 35.397820	-2.634230	-3.002532	 0.001166	 0.920697	-17.573520	-26.377990	-14.845360	 89.782080	 78.203890	-180.000000	 58.781730	 12.317920	-15.504570	-6.950852	-10.235720	 85.020760	 60.348600	 50.004710	-5.178630	 5.716227	 19.173190	-3.685159	 5.027444	 0.246877	-9.377972	-2.350882	 35.473990	 5.254307
-0.455970	-0.032625	 1.265752	-169.906800	-0.843188	 1.954254	-3.617674	-10.175350	 178.292600	-5.823192	-39.599630	-4.079694	-63.603500	 83.608980	 53.455650	-2.385833	 28.452760	 0.000004	 19.866090	-21.014090	-169.166800	-2.052004	-39.135840	-2.257934	 47.635440	 73.814580	-32.145060	 2.384659	 28.388700	-0.000001	-17.052010	 4.987774	-6.618993	 9.799067	 5.709922	 19.570150	-8.720100	 2.199208	-16.172140	-91.776250	 78.527380	-180.000000	 32.882050	 48.977390	-61.950650	-2.493004	-1.981318	-106.332900	-0.439403	-8.935506	-2.289519	-4.130319	 21.525730	 0.991547	-5.167930	 0.731704	 3.519349	-1.378229	 35.397820	-2.634230	-5.206436	-0.879419	 2.350060	-18.175850	-24.103930	-14.462970	 89.782080	 78.203890	-180.000000	-24.260160	 47.339790	 42.146350	-7.655109	-9.265557	 81.564980	 15.433660	-35.008920	 11.018600	 5.716227	 19.173190	-3.685159	 5.027444	 0.246877	-9.377972	-2.350882	 35.473990	 5.254307
-0.446912	-0.026826	 1.267704	-169.637500	-0.394279	 2.179326	-5.410700	-10.178400	 177.750200	-5.237481	-39.272530	-3.678290	-63.422340	 83.075300	 52.990780	-2.385833	 28.452760	 0.000004	 21.202800	-21.481330	-169.614200	-2.847725	-36.484940	-2.601948	 42.934840	 72.056170	-26.634740	 2.384659	 28.388700	-0.000001	-17.050340	 4.063156	-7.112303	 11.345510	 7.162452	 19.369140	-8.890192	 1.544143	-16.005600	-91.776060	 78.527380	 179.999900	 33.548920	 48.548660	-62.775790	-2.427206	-1.936391	-105.028300	-0.419975	-8.764979	-2.298389	-4.130319	 21.525730	 0.991547	-5.167930	 0.731704	 3.519349	-1.378229	 35.397820	-2.634230	-5.354184	-1.149326	 2.412992	-18.215150	-24.086520	-14.246600	 89.782130	 78.203870	 180.000000	-23.340300	 47.031610	 41.016690	-7.445398	-9.014178	 82.718260	 14.894080	-38.008380	 9.131190	 5.716227	 19.173190	-3.685159	 5.027444	 0.246877	-9.377972	-2.350882	 35.473990	 5.254307
-0.441383	-0.022999	 1.268585	-169.489500	-0.169784	 2.286686	-6.552122	-10.118850	 177.416600	-4.867404	-39.107540	-3.430571	-63.579040	 82.795490	 52.943460	-2.385833	 28.452760	 0.000004	 21.676150	-21.867360	-170.009400	-3.124692	-35.674740	-2.714190	 40.975570	 71.352680	-24.355750	 2.384659	 28.388700	-0.000001	-16.989190	 3.522176	-7.377085	 12.198350	 7.903715	 19.355760	-8.975314	 1.225536	-15.970640	-91.776180	 78.527380	 180.000000	 33.968750	 48.304980	-63.268370	-2.402870	-1.923882	-104.531700	-0.396485	-8.672113	-2.304123	-4.130319	 21.525730	 0.991547	-5.167930	 0.731704	 3.519349	-1.378229	 35.397820	-2.634230	-5.423115	-1.327956	 2.343149	-18.222070	-24.100110	-13.929760	 89.782210	 78.203890	 179.999900	-23.147490	 46.795080	 40.566940	-7.342546	-8.792508	 83.221810	 14.798160	-39.920910	 8.380130	 5.716227	 19.173190	-3.685159	 5.027444	 0.246877	-9.377972	-2.350882	 35.473990	 5.254307
-0.437823	-0.020482	 1.269084	-169.390100	-0.033682	 2.357992	-7.318107	-10.068250	 177.198500	-4.620910	-39.014590	-3.267752	-63.742540	 82.617170	 52.966260	-2.385833	 28.452760	 0.000004	 22.006780	-22.122300	-170.286700	-3.320271	-35.317940	-2.804208	 40.057140	 71.014530	-23.222310	 2.384659	 28.388700	-0.000001	-16.946490	 3.184897	-7.546394	 12.726840	 8.341694	 19.356940	-9.023162	 1.039670	-15.950830	-91.776210	 78.527360	-180.000000	 34.219070	 48.153040	-63.567860	-2.389601	-1.917709	-104.256500	-0.380528	-8.609615	-2.308140	-4.130319	 21.525730	 0.991547	-5.167930	 0.731704	 3.519349	-1.378229	 35.397820	-2.634230	-5.469599	-1.448009	 2.295904	-18.226270	-24.109710	-13.716930	 89.782090	 78.203870	 180.000000	-23.110500	 46.634310	 40.349710	-7.287418	-8.644200	 83.479290	 14.761860	-41.162580	 7.973960	 5.716227	 19.173190	-3.685159	 5.027444	 0.246877	-9.377972	-2.350882	 35.473990	 5.254307
-0.435296	-0.018683	 1.269411	-169.349500	 0.074735	 2.392154	-7.795426	-10.043300	 177.056100	-4.485674	-38.944890	-3.177438	-63.610930	 82.522100	 52.750930	-2.385833	 28.452760	 0.000004	 21.962010	-22.363930	-170.486500	-3.373873	-35.128600	-2.822135	 39.130830	 70.681220	-22.227230	 2.384659	 28.388700	-0.000001	-16.898860	 2.920617	-7.632946	 13.095080	 8.661714	 19.337920	-9.045176	 0.895773	-15.925690	-91.776240	 78.527380	-179.999900	 34.370340	 48.033000	-63.752980	-2.379247	-1.907027	-104.072700	-0.376498	-8.553330	-2.310951	-4.130319	 21.525730	 0.991547	-5.167930	 0.731704	 3.519349	-1.378229	 35.397820	-2.634230	-5.496423	-1.433430	 2.288787	-18.246300	-24.216220	-13.675550	 89.782160	 78.203890	 179.999900	-23.118860	 46.544940	 40.216510	-7.264572	-8.623599	 83.634930	 14.614850	-41.946180	 7.602456	 5.716227	 19.173190	-3.685159	 5.027444	 0.246877	-9.377972	-2.350882	 35.473990	 5.254307
-0.433326	-0.017280	 1.269654	-169.331000	 0.162965	 2.411886	-8.143654	-10.027210	 176.953200	-4.396279	-38.889680	-3.117271	-63.368700	 82.465810	 52.447830	-2.385833	 28.452760	 0.000004	 21.794380	-22.574800	-170.645100	-3.376822	-35.009700	-2.815493	 38.304780	 70.371290	-21.387980	 2.384659	 28.388700	-0.000001	-16.854430	 2.707281	-7.686045	 13.378540	 8.917277	 19.314520	-9.056980	 0.774541	-15.900210	-91.776180	 78.527380	-180.000000	 34.472500	 47.933460	-63.880040	-2.370726	-1.895793	-103.934400	-0.376610	-8.502620	-2.313174	-4.130319	 21.525730	 0.991547	-5.167930	 0.731704	 3.519349	-1.378229	 35.397820	-2.634230	-5.514973	-1.374530	 2.295653	-18.270480	-24.348680	-13.694430	 89.782150	 78.203850	 180.000000	-23.140750	 46.487660	 40.121250	-7.253966	-8.647738	 83.744170	 14.440270	-42.509250	 7.268482	 5.716227	 19.173190	-3.685159	 5.027444	 0.246877	-9.377972	-2.350882	 35.473990	 5.254307
-0.431504	-0.015982	 1.269871	-169.312600	 0.245595	 2.430409	-8.481877	-10.012420	 176.863400	-4.308709	-38.840760	-3.058815	-63.096190	 82.420450	 52.112140	-2.385833	 28.452760	 0.000004	 21.634680	-22.766280	-170.790200	-3.381070	-34.915030	-2.811335	 37.597720	 70.082060	-20.672380	 2.384659	 28.388700	-0.000001	-16.815710	 2.507678	-7.734285	 13.637750	 9.158125	 19.292990	-9.067385	 0.657913	-15.875660	-91.776120	 78.527380	 179.999900	 34.557580	 47.841450	-63.985940	-2.363095	-1.885500	-103.809600	-0.376792	-8.452572	-2.315471	-4.130319	 21.525730	 0.991547	-5.167930	 0.731704	 3.519349	-1.378229	 35.397820	-2.634230	-5.533257	-1.316444	 2.302458	-18.294260	-24.479290	-13.713170	 89.782100	 78.203830	 180.000000	-23.169540	 46.435760	 40.039090	-7.245498	-8.672071	 83.838230	 14.275390	-43.026330	 6.960786	 5.716227	 19.173190	-3.685159	 5.027444	 0.246877	-9.377972	-2.350882	 35.473990	 5.254307
